{"title":"Killers Creed 2013 DVDrip Xvid Ac3-MiLLENiUM","uid":8434613,"size":1506447713,"categoryP":"video","categoryS":"movies","magnet":"?xt=urn:btih:bcf69d43d3a9708d20b5cd027d16e0c1cca0d2b8&amp;dn=Killers+Creed+2013+DVDrip+Xvid+Ac3-MiLLENiUM&amp;tr=udp%3A%2F%2Ftracker.openbittorrent.com%3A80&amp;tr=udp%3A%2F%2Fopen.demonii.com%3A1337&amp;tr=udp%3A%2F%2Ftracker.coppersurfer.tk%3A6969&amp;tr=udp%3A%2F%2Fexodus.desync.com%3A6969","seeders":0,"leechers":0,"uploader":"xxxlavalxxx","files":-1,"time":1367590273,"description":"\n\n &lt;a href=&quot;\nhttp://www.imdb.com/title/tt0438052/&quot; rel=&quot;nofollow&quot; target=&quot;_NEW&quot;&gt;\nhttp://www.imdb.com/title/tt0438052/&lt;/a&gt;\n\n\nIn a futuristic world, Michelle lives everyday battling with DNA Hackers who use their skills to hack into people's bodies and kill them. She is an assassin, battling her past demons and trying to keep her younger and extroverted brother, Jackie, out of trouble. When Jackie gets involved in a petty crime of robbery, he propels himself into the world of DNA Hackers, Shylocks (Loan Sharks) and Gang Fights. Wanting the respect that the world has never given to him only makes it harder for Jackie to peel himself away from the underground trades, against the hopes of his sister, Michelle. Michelle always wanted to leave the city and lead a calm and quiet lifestyle. As emotions and gunfire get into the way, Michelle and Jackie soon find themselves battling between their lives and finding out that in an immoral world, love can still survive. Blood is thicker than water.\n\nMichelle, an assassin to a new breed of killers (DNA Hackers), finds she has greater obstacles in her life... Family. \n\n\n\nDirector:\n Pearry Reginald Teo \n\nWriters:\n Pearry Reginald Teo, Keith Collea\n\nStars:\n Bai Ling, Alec Newman, Parry Shen\n\nGenres:\n  Action |  Sci-Fi \n\nCountry:\n USA \n\nLanguage:\n English \n\n\n\n\nGeneral\n Complete name                            : Killers Creed 2013 DVDrip Xvid Ac3-MiLLENiUM.avi\n Source                                   : DVDR L-S [thanks] :wink:\n Format                                   : AVI\n Format/Info                              : Audio Video Interleave\n File size                                : 1.38 GiB\n Duration                                 : 1h 31mn\n Overall bit rate                         : 2 156 Kbps\n Writing application                      : VirtualDubMod 1.5.10.2 (build 2540/release)\n Writing library                          : VirtualDubMod build 2540/release\n\n Video\n ID                                       : 0\n Format                                   : MPEG-4 Visual\n Format profile                           : Advanced Simple@L5\n Format settings, BVOP                    : 2\n Format settings, QPel                    : No\n Format settings, GMC                     : No warppoints\n Format settings, Matrix                  : Default (H.263)\n Muxing mode                              : Packed bitstream\n Codec ID                                 : XVID\n Codec ID/Hint                            : XviD\n Duration                                 : 1h 31mn\n Bit rate                                 : 1 698 Kbps\n Width                                    : 720 pixels\n Height                                   : 384 pixels\n Display aspect ratio                     : 1.875\n Frame rate                               : 25.000 fps\n Color space                              : YUV\n Chroma subsampling                       : 4:2:0\n Bit depth                                : 8 bits\n Scan type                                : Progressive\n Compression mode                         : Lossy\n Bits/(Pixel*Frame)                       : 0.246\n Stream size                              : 1.09 GiB (79%)\n Writing library                          : XviD 1.2.1 (UTC 2008-12-04)\n\n Audio\n ID                                       : 1\n Format                                   : AC-3\n Format/Info                              : Audio Coding 3\n Mode extension                           : CM (complete main)\n Codec ID                                 : 2000\n Duration                                 : 1h 31mn\n Bit rate mode                            : Constant\n Bit rate                                 : 448 Kbps\n Channel(s)                               : 6 channels\n Channel positions                        : Front: L C R, Side: L R, LFE\n Sampling rate                            : 48.0 KHz\n Bit depth                                : 16 bits\n Compression mode                         : Lossy\n Stream size                              : 294 MiB (21%)\n Alignment                                : Split accross interleaves\n Interleave, duration                     : 40 ms (1.00 video frame)\n Interleave, preload duration             : 500 ms\n\n\n\n    &lt;a href=&quot;\thttp://addpix.net/viewer.php?file=09360035240448473231.jpg&quot; rel=&quot;nofollow&quot; target=&quot;_NEW&quot;&gt;\thttp://addpix.net/viewer.php?file=09360035240448473231.jpg&lt;/a&gt;\n    &lt;a href=&quot;\thttp://addpix.net/viewer.php?file=75863644232049348107.jpg&quot; rel=&quot;nofollow&quot; target=&quot;_NEW&quot;&gt;\thttp://addpix.net/viewer.php?file=75863644232049348107.jpg&lt;/a&gt;\n    &lt;a href=&quot;\thttp://addpix.net/viewer.php?file=76426831596846139552.jpg&quot; rel=&quot;nofollow&quot; target=&quot;_NEW&quot;&gt;\thttp://addpix.net/viewer.php?file=76426831596846139552.jpg&lt;/a&gt;\n    &lt;a href=&quot;\thttp://addpix.net/viewer.php?file=37249718608044225608.jpg&quot; rel=&quot;nofollow&quot; target=&quot;_NEW&quot;&gt;\thttp://addpix.net/viewer.php?file=37249718608044225608.jpg&lt;/a&gt;\n    &lt;a href=&quot;\thttp://addpix.net/viewer.php?file=35422171008406925136.jpg&quot; rel=&quot;nofollow&quot; target=&quot;_NEW&quot;&gt;\thttp://addpix.net/viewer.php?file=35422171008406925136.jpg&lt;/a&gt;","torrent":{"xt":"urn:btih:bcf69d43d3a9708d20b5cd027d16e0c1cca0d2b8","amp;dn":"Killers+Creed+2013+DVDrip+Xvid+Ac3-MiLLENiUM","amp;tr":["udp%3A%2F%2Ftracker.openbittorrent.com%3A80","udp%3A%2F%2Fopen.demonii.com%3A1337","udp%3A%2F%2Ftracker.coppersurfer.tk%3A6969","udp%3A%2F%2Fexodus.desync.com%3A6969"],"infoHash":"bcf69d43d3a9708d20b5cd027d16e0c1cca0d2b8","infoHashBuffer":{"type":"Buffer","data":[188,246,157,67,211,169,112,141,32,181,205,2,125,22,224,193,204,160,210,184]},"announce":[],"urlList":[]}}